<?xml version="1.0" encoding="UTF-8"?>
<svg width="34px" height="34px" viewBox="0 0 34 34" version="1.1" xmlns="http://www.w3.org/2000/svg" xmlns:xlink="http://www.w3.org/1999/xlink">
    <!-- Generator: Sketch 54 (76480) - https://sketchapp.com -->
    <title>V</title>
    <desc>Created with Sketch.</desc>
    <g id="Page-1" stroke="none" stroke-width="1" fill="none" fill-rule="evenodd">
        <g id="Réserver" transform="translate(-223.000000, -1330.000000)">
            <g id="DRIVER" transform="translate(0.000000, 1148.000000)">
                <g id="driver" transform="translate(30.000000, 82.000000)">
                    <g id="V-+-V-+-V-+-icon-+-icon-+-icon" transform="translate(158.000000, 96.000000)">
                        <g id="V-+-V-+-V" transform="translate(35.000000, 4.000000)">
                            <g id="V">
                                <circle id="Oval-459" fill="#7DAA3C" cx="17" cy="17" r="17"></circle>
                                <path d="M24.7503362,10.8972043 L13.6733499,24.3424029 C13.5783394,24.5179693 13.4562877,24.6759464 13.283564,24.7865247 C12.7093613,25.1724863 11.9427037,25.0116613 11.5711915,24.4333021 L6.92740783,18.2038931 C6.55467751,17.625319 6.72058159,16.8340098 7.29259171,16.4604829 C7.86679441,16.0745212 8.63345202,16.2353462 9.00618234,16.8139203 L12.6409139,21.6858474 L22.8598838,9.28173748 C23.2991238,8.75658669 24.0806425,8.67642759 24.6027095,9.12747822 C25.1257509,9.56587938 25.1895762,10.3720535 24.7503362,10.8972043 L24.7503362,10.8972043 L24.7503362,10.8972043 Z" id="Fill-230" fill="#FFFFFF"></path>
                            </g>
                        </g>
                    </g>
                </g>
            </g>
        </g>
    </g>
</svg>